<svg version="1.2" xmlns="http://www.w3.org/2000/svg" viewBox="0 0 376 466" width="376" height="466"><style>.a{fill:#fff}.b{fill:#ff3f1b}.c{fill:#001e3f}.d{fill:#ffd500}</style><path class="a" d="m373.7 298.8c0 58.6-23.6 100.3-70.6 133.5q-0.1 0-0.1 0c-2.1 1.4-5.4 3.5-7.6 4.7 0 0.1 0 0.1-0.1 0.1-59.7 36.6-155.2 36.2-214.2 0-0.3 0-7.6-4.6-7.8-4.7v-0.1c-42.8-27.6-70.7-74.6-70.7-133.5 0 12 83.1 20 185.6 20 102.4 0 185.5-8 185.5-20z"/><path class="b" d="m375.6 298.8c0 12.1-83.9 21.9-187.4 21.9-103.5 0-187.4-9.8-187.4-21.9 0-12.1 83.9-21.8 187.4-21.8 103.5 0 187.4 9.7 187.4 21.8z"/><path class="a" d="m361.2 298.8c0 1.5-3.9 3-10.9 4.4-25.3 5.2-90.7 9.6-162.1 9.6-73.6 0-140.7-3.9-164.2-9.6-5.8-1.4-8.9-2.8-8.9-4.4 0-7.9 81.7-14 173.1-14 91.4 0 173 7.3 173 14z"/><path class="a" d="m350.3 303.2c-25.3 5.2-90.7 9.6-162.1 9.6-73.6 0-140.7-3.9-164.2-9.6 23.5-5.6 90.7-9.6 164.2-9.6 71.4 0 136.8 4.5 162.1 9.6z"/><path fill-rule="evenodd" class="b" d="m188.2 314.6c-73.5 0-141.2-4-164.6-9.7-0.8-0.2-1.4-0.9-1.4-1.7 0-0.8 0.6-1.5 1.4-1.7 23.5-5.7 91.2-9.6 164.6-9.6 75.5 0 138.9 4.8 162.4 9.6 0.8 0.2 1.4 0.9 1.4 1.7 0 0.9-0.6 1.6-1.4 1.8-27.3 5.5-95.6 9.6-162.4 9.6zm-155-11.4c28.7 4.7 89.5 7.9 155 7.9 66.2 0 122.9-3.7 151.5-7.9-28.7-4.1-85.4-7.8-151.5-7.8-65.5 0-126.3 3.1-155 7.8z"/><path class="c" d="m373.2 312.3c-0.1 1.7-0.3 3.4-0.4 5.1-19.8 13.4-117 18.4-184.6 18.4-67.7 0-164.9-5-184.6-18.4q-0.3-2.6-0.4-5.1h0.3c0 8.3 70.3 20 184.7 20 114.4 0 184.6-11.7 184.6-20z"/><path class="c" d="m367.4 345.4q-0.5 2.1-1.2 4.1c-29.3 11-116.1 15.2-178 15.2-62 0-148.8-4.2-178.1-15.2-0.4-1.3-0.8-2.7-1.1-4.1 18.5 7.6 83.3 15.8 179.2 15.8 95.8 0 160.7-8.2 179.2-15.8z"/><path class="d" d="m338.5 400.6q-1.8 2.2-3.7 4.3c-39.4 5.9-100 8.3-146.6 8.3-46.6 0-107.2-2.4-146.6-8.3q-1.9-2.1-3.7-4.3c31.2 5 83.1 9.1 150.3 9.1 67.2 0 119.1-4.1 150.3-9.1z"/><path class="d" d="m348.2 387.6c-1 1.5-2 2.9-3 4.3-38.9 7.1-106.2 9.9-157 9.9-50.8 0-118.2-2.8-157-9.9-1-1.4-2-2.9-3-4.3 29.8 5.8 85.6 10.7 160 10.7 74.4 0 130.1-4.9 160-10.7z"/><path class="b" d="m91.5 430.7c0 1.2-0.4 2.3-0.9 3.3-1.1 2.3-3.1 4.1-5.5 4.9q-0.3 0.1-0.7 0.1-1.7-0.9-3.3-1.9c-0.1 0-0.1 0-0.2-0.1q0.4 0.1 0.7 0.2c4 0.4 7.5-2.7 7.8-6.6 0.3-4-2.5-7.5-6.4-7.9h-0.7c-3.6 0-6.7 2.8-7.1 6.5-0.2 1.9 0.3 3.8 1.5 5.2-1.1-0.6-2.2-1.3-3.3-2 0 0-0.1 0-0.1 0q0 0 0 0v-0.1c-0.3-1-0.4-2.2-0.2-3.3 0.1-1.3 0.5-2.5 1.1-3.5 1.2-2.3 3.3-4 5.7-4.6q1.6-0.5 3.3-0.3 1.7 0.1 3.1 0.9c2.3 1.1 4.1 3.2 4.8 5.6 0.4 1.1 0.5 2.4 0.4 3.6z"/><path fill-rule="evenodd" class="b" d="m100.2 431.2c-0.2 2.8-2.5 5-5.3 5q-0.2 0-0.4-0.1c-1.4 0-2.7-0.7-3.6-1.8-0.1-0.1-0.2-0.2-0.3-0.3-0.7-1-1.1-2.3-1-3.6 0.1-1.3 0.7-2.5 1.5-3.3 1.1-1.1 2.5-1.7 4.2-1.6 2.9 0.2 5.1 2.8 4.9 5.7zm-2.1-0.1c0.1-1.9-1.2-3.4-2.9-3.5h-0.1c-1.8 0-3.2 1.3-3.4 3 0 0.8 0.2 1.7 0.8 2.4 0.5 0.6 1.3 1 2.1 1.1h0.3c1.6 0 3.1-1.4 3.2-3z"/><path class="b" d="m75 429c-0.1 1.3-0.7 2.5-1.6 3.4 0 0-0.1 0-0.1 0q0 0 0 0v-0.1c-0.6-0.4-1.2-0.8-1.8-1.2 0.8-0.5 1.3-1.4 1.4-2.3 0.2-1.8-1.1-3.4-2.8-3.6-0.1 0-0.2 0-0.3 0-1.5 0-2.8 1-3.1 2.5-0.6-0.4-1.2-0.9-1.8-1.3 0.9-2.1 3-3.5 5.5-3.3 1.6 0.2 3 1.1 3.8 2.4 0.7 1 1 2.2 0.8 3.5z"/><path class="b" d="m85.7 439.8q-0.6-0.4-1.3-0.8-1.7-0.9-3.3-1.9c0.2 0 0.4 0.1 0.5 0.1 1.4 0.1 2.6 0.7 3.5 1.7q0.4 0.4 0.6 0.9z"/><path fill-rule="evenodd" class="b" d="m88.7 417.4c-0.1 1.8-1.1 3.2-2.4 4.1-0.8 0.5-1.8 0.8-2.8 0.8h-0.5c-1.2-0.1-2.2-0.6-3.1-1.4q-0.2-0.2-0.4-0.4c-0.9-1.1-1.3-2.6-1.2-4 0.3-2.9 2.8-5.1 5.7-4.8 2.9 0.2 5 2.8 4.7 5.7zm-2.1-0.1c0.2-1.8-1.1-3.4-2.8-3.6h-0.3c-1.5 0-2.9 1.3-3.1 3-0.1 0.9 0.2 1.7 0.7 2.4 0.6 0.6 1.3 1 2.1 1.1h0.3c1.6 0 2.9-1.3 3.1-2.9z"/><path fill-rule="evenodd" class="b" d="m133.9 433.2c0 1.2-0.3 2.3-0.7 3.3-1.1 2.4-3 4.3-5.4 5.2-1 0.3-2.1 0.5-3.2 0.5h-0.4c-1.3-0.1-2.5-0.4-3.6-0.9-1.1-0.5-2-1.2-2.9-2.2-0.8-0.9-1.5-2.1-1.9-3.4q-0.5-1.6-0.4-3.3c0-1.3 0.4-2.5 0.9-3.6 1.1-2.3 3.1-4.1 5.5-4.9 0.9-0.3 1.8-0.5 2.8-0.5l0.5 0.1h0.1c1.1 0 2.1 0.3 3 0.7 2.4 1 4.2 3 5.1 5.4 0.4 1.1 0.6 2.3 0.6 3.6zm-2.1-0.1c0.1-4-2.9-7.3-6.8-7.5l-0.4-0.1c-3.7 0-6.9 3.1-7.1 7-0.1 1.9 0.5 3.8 1.8 5.2 1.3 1.4 3.1 2.3 5 2.4h0.3c3.9 0 7-3.1 7.2-7z"/><path fill-rule="evenodd" class="b" d="m142.5 433.3c-0.1 2.9-2.4 5.2-5.3 5.2h-0.2c-1.4 0-2.7-0.6-3.6-1.7-0.1-0.1-0.2-0.2-0.2-0.3-0.9-1-1.3-2.2-1.3-3.5 0.1-1.3 0.6-2.5 1.4-3.4 0.9-1.1 2.4-1.8 3.9-1.8 3.2 0.1 5.5 2.6 5.3 5.5zm-2.1 0c0.1-1.8-1.3-3.3-3-3.4-1.9 0-3.3 1.4-3.3 3.1-0.1 0.9 0.3 1.7 0.8 2.4 0.6 0.6 1.4 1 2.2 1l0.1 1v-1c1.8 0 3.2-1.4 3.2-3.1z"/><path fill-rule="evenodd" class="b" d="m117.3 432.3c-0.1 1.3-0.6 2.5-1.5 3.4-1 1-2.3 1.6-3.8 1.6h-0.3c-1.4-0.1-2.7-0.7-3.6-1.8-1-1.1-1.5-2.4-1.4-3.8 0.2-2.9 2.5-5.1 5.3-5.1h0.3c1.7 0.1 3.1 1 4 2.2 0.7 0.9 1.1 2.2 1 3.5zm-2.1-0.2c0.1-1.7-1.3-3.3-3-3.4-1.9 0-3.3 1.4-3.4 3.1 0 0.8 0.3 1.7 0.8 2.3 0.6 0.7 1.4 1 2.2 1.1l0.2 1.1v-1.1c1.7 0 3.1-1.3 3.2-3.1z"/><path fill-rule="evenodd" class="b" d="m129.4 445.7c-0.2 2.8-2.5 5.1-5.4 5.1h-0.2c-1.5-0.1-2.8-0.7-3.7-1.8-1-1-1.5-2.4-1.4-3.9 0.1-1.5 0.8-2.9 1.9-3.8 1-0.8 2.1-1.2 3.4-1.2 1.6 0 2.8 0.6 3.8 1.6 1 1 1.6 2.4 1.6 4zm-2.1-0.1c0-1.8-1.4-3.3-3.1-3.4-1.9 0-3.3 1.4-3.4 3.1-0.1 0.8 0.2 1.7 0.8 2.3 0.6 0.7 1.4 1 2.3 1.1l0.1 1v-1c1.8 0 3.2-1.4 3.3-3.1z"/><path fill-rule="evenodd" class="b" d="m130.5 420.1c-0.1 1.7-1 3.2-2.3 4.1-0.8 0.6-1.9 1-3 1h-0.2c-1.2-0.1-2.3-0.5-3.2-1.3q-0.2-0.2-0.4-0.4c-1-1.1-1.5-2.5-1.4-3.9 0.1-2.9 2.4-5.1 5.2-5.1 3.2 0.1 5.4 2.6 5.3 5.6zm-2.2-0.1c0.2-1.8-1.2-3.3-2.9-3.4-1.8 0-3.2 1.3-3.3 3.1 0 0.9 0.2 1.7 0.8 2.3 0.6 0.7 1.3 1 2.2 1.1v0.4l0.1 0.6v-1c1.7 0 3.1-1.4 3.1-3.1z"/><path fill-rule="evenodd" class="b" d="m176.3 434.2c0 1.2-0.3 2.3-0.7 3.3-0.9 2.5-2.8 4.4-5.2 5.3-1 0.4-2.2 0.7-3.4 0.7h-0.1c-1.3 0-2.5-0.3-3.6-0.8-1.1-0.4-2.1-1.2-2.9-2-1-1-1.7-2.2-2.1-3.5q-0.6-1.6-0.6-3.3c0.1-1.2 0.4-2.4 0.8-3.5 1.1-2.4 3-4.3 5.4-5.1q1.5-0.6 3.1-0.6h0.2c1.1 0.1 2.2 0.3 3.1 0.7 2.4 0.9 4.4 2.8 5.3 5.2 0.4 1.1 0.7 2.3 0.7 3.6zm-2.1 0c0-4-3.2-7.3-7.1-7.4-4 0-7.2 3.2-7.2 7.2-0.1 1.9 0.6 3.8 2 5.2 1.3 1.4 3 2.1 4.9 2.2 0.1 0 0.1 0 0.1 0l0.1 1v-1c3.9 0 7.1-3.2 7.2-7.2z"/><path fill-rule="evenodd" class="b" d="m184.9 434.1c0 2.9-2.4 5.3-5.3 5.3-1.4 0-2.7-0.6-3.7-1.6q-0.2-0.1-0.3-0.3c-0.8-1-1.3-2.2-1.3-3.5 0-1.3 0.5-2.5 1.3-3.4 0.9-1.2 2.4-1.9 4-1.9 3 0 5.3 2.4 5.3 5.4zm-2.1 0c0-1.8-1.4-3.3-3.1-3.3-1.8 0-3.2 1.5-3.2 3.2 0 0.9 0.3 1.7 0.9 2.4 0.6 0.6 1.4 0.9 2.2 0.9v1-1c1.8 0 3.2-1.5 3.2-3.2z"/><path fill-rule="evenodd" class="b" d="m159.7 433.8c-0.1 1.3-0.5 2.5-1.4 3.4-0.9 1.1-2.4 1.8-4 1.8h-0.1c-1.4 0-2.7-0.6-3.6-1.6-1-1-1.6-2.4-1.5-3.9 0.1-2.9 2.4-5.2 5.3-5.2 1.7 0 3.2 0.8 4.1 2.1 0.8 0.9 1.2 2.1 1.2 3.4zm-2.1-0.1c0-1.7-1.4-3.2-3.1-3.3-1.8 0-3.3 1.4-3.3 3.2 0 0.9 0.3 1.7 0.9 2.3 0.6 0.6 1.4 1 2.2 1v1.1-1.1c1.8 0 3.2-1.4 3.3-3.2z"/><path fill-rule="evenodd" class="b" d="m172.2 446.8c-0.1 2.9-2.4 5.3-5.4 5.3-1.5 0-2.8-0.6-3.8-1.7-1-1-1.5-2.3-1.5-3.8 0-1.5 0.7-2.9 1.8-3.9 0.9-0.8 2.2-1.3 3.5-1.3 0.1 0 0.1 0 0.1 0 0 0 0.1 0 0.1 0 1.3 0 2.5 0.6 3.4 1.4 1.1 1 1.8 2.4 1.8 4zm-2.2 0c0.1-1.8-1.4-3.3-3.1-3.3-1.8 0-3.3 1.4-3.3 3.2 0 0.9 0.3 1.7 0.9 2.3 0.6 0.6 1.4 1 2.3 1v1-1c1.8 0 3.2-1.5 3.2-3.2z"/><path fill-rule="evenodd" class="b" d="m172.5 421.2c-0.1 1.7-0.9 3.2-2.2 4.2-0.9 0.7-1.9 1.1-3.1 1.1h-0.1c-1.2-0.1-2.3-0.5-3.2-1.2-0.2-0.1-0.3-0.3-0.5-0.4-1-1.1-1.5-2.4-1.5-3.9 0.1-2.9 2.4-5.3 5.3-5.3 3 0.1 5.3 2.5 5.3 5.5zm-2.1 0c0-1.8-1.4-3.3-3.2-3.4-1.7 0-3.1 1.5-3.1 3.3-0.1 0.8 0.2 1.6 0.8 2.3 0.6 0.6 1.4 0.9 2.2 0.9l0.1 0.4v0.7-1.1c1.7 0 3.1-1.4 3.2-3.1z"/><path fill-rule="evenodd" class="b" d="m218.7 433.9q0 1.7-0.5 3.3c-0.5 1.3-1.2 2.5-2.2 3.5q-1.2 1.3-2.9 2c-1.1 0.5-2.3 0.8-3.5 0.8h-0.2c-1.2 0-2.3-0.3-3.4-0.7-2.4-0.9-4.3-2.8-5.2-5.3-0.4-1-0.7-2.1-0.7-3.3 0-1.3 0.3-2.5 0.7-3.6 1-2.4 2.9-4.3 5.3-5.2 1-0.4 2-0.6 3.1-0.7h0.1c1.1 0 2.2 0.2 3.2 0.6 2.4 0.9 4.3 2.7 5.4 5.1q0.7 1.6 0.8 3.5zm-2.1 0.1c-0.1-4-3.3-7.2-7.2-7.2-4 0.1-7.1 3.4-7.1 7.4 0 4 3.2 7.2 7.1 7.2v1l0.1-1c1.9-0.1 3.7-0.8 5-2.2 1.4-1.4 2.1-3.3 2.1-5.2z"/><path fill-rule="evenodd" class="b" d="m227.3 433.5c0.1 1.5-0.5 2.9-1.4 3.9-1 1-2.3 1.6-3.7 1.6h-0.2c-1.5 0-2.9-0.7-3.8-1.8-0.9-0.9-1.4-2.1-1.5-3.4 0-1.3 0.4-2.5 1.2-3.4 0.9-1.3 2.4-2 4-2.1 3 0 5.4 2.3 5.4 5.2zm-2.1 0.1c0-1.8-1.4-3.2-3.2-3.2-1.8 0.1-3.2 1.5-3.1 3.3 0 1.8 1.4 3.2 3.1 3.2v1.1l0.1-1.1c0.9 0 1.6-0.4 2.2-1 0.6-0.6 1-1.4 0.9-2.3z"/><path fill-rule="evenodd" class="b" d="m202.1 434c0 1.3-0.4 2.5-1.3 3.5q-0.1 0.2-0.2 0.3c-1.1 1-2.4 1.6-3.8 1.6-2.9 0-5.3-2.4-5.3-5.3 0-3 2.3-5.4 5.2-5.4 1.7 0 3.2 0.7 4.1 1.9 0.8 0.9 1.3 2.1 1.3 3.4zm-2.1 0c0-1.7-1.5-3.2-3.2-3.2-1.8 0-3.2 1.5-3.2 3.3 0 1.7 1.5 3.2 3.2 3.2v1-1c0.8 0 1.6-0.3 2.2-0.9 0.6-0.7 1-1.5 1-2.4z"/><path fill-rule="evenodd" class="b" d="m214.9 446.6c0.1 1.5-0.5 2.8-1.5 3.8-1 1.1-2.3 1.7-3.7 1.7h-0.1c-2.9 0-5.3-2.4-5.3-5.3-0.1-1.6 0.6-3 1.7-4 0.9-0.8 2.1-1.4 3.4-1.4h0.1c1.4 0 2.7 0.5 3.6 1.3 1.1 1 1.8 2.4 1.8 3.9zm-2.1 0.1c0-1.8-1.5-3.2-3.2-3.2-1.8 0.1-3.2 1.5-3.2 3.3 0 1.7 1.4 3.2 3.2 3.2v1-1c0.9 0 1.7-0.4 2.3-1 0.6-0.6 0.9-1.4 0.9-2.3z"/><path fill-rule="evenodd" class="b" d="m214.5 421c0 1.5-0.5 2.8-1.5 3.9q-0.3 0.2-0.5 0.4c-0.9 0.7-2 1.1-3.2 1.2h-0.1c-1.1 0-2.2-0.4-3.1-1.1-1.3-1-2.1-2.5-2.1-4.2-0.1-3 2.3-5.4 5.1-5.5 3 0 5.3 2.4 5.4 5.3zm-5.2 3.7v-0.4c0.8 0 1.6-0.3 2.1-0.9 0.6-0.7 1-1.5 1-2.3-0.1-1.8-1.5-3.3-3.2-3.3-1.7 0.1-3.1 1.6-3.1 3.4 0 1.7 1.4 3.1 3.1 3.1v1.1z"/><path fill-rule="evenodd" class="b" d="m261.1 432.4c0 1.1-0.1 2.2-0.5 3.3-0.4 1.3-1 2.5-2 3.4-0.8 1-1.8 1.7-2.8 2.2q-1.6 0.8-3.4 0.9h-0.1-0.5q-1.7 0-3.2-0.5c-2.4-0.9-4.3-2.8-5.3-5.2-0.4-1-0.7-2.1-0.8-3.3 0-1.3 0.2-2.5 0.6-3.6 0.9-2.4 2.8-4.4 5.1-5.4 0.9-0.4 1.9-0.7 3-0.7 0 0 0.1 0 0.2 0l0.4-0.1c1 0 1.9 0.2 2.8 0.5 2.5 0.8 4.5 2.6 5.6 4.9q0.8 1.6 0.9 3.6zm-2.1 0.1c-0.3-3.9-3.4-7-7.2-7l-0.3 0.1c-3.9 0.2-7 3.5-6.8 7.5 0.1 3.9 3.2 7 7.1 7 0.1 0 0.2 0 0.3 0q0 0 0.1 0c1.9-0.1 3.6-1 4.9-2.4 1.3-1.4 2-3.3 1.9-5.2z"/><path fill-rule="evenodd" class="b" d="m269.7 431.7c0.1 1.4-0.4 2.7-1.3 3.8-1 1.1-2.3 1.7-3.7 1.8h-0.3c-1.5 0-2.9-0.6-3.8-1.6-0.9-0.9-1.4-2.1-1.5-3.4 0-1.3 0.4-2.6 1.1-3.5 0.9-1.2 2.3-2.1 3.9-2.2h0.3c2.8 0 5.1 2.2 5.3 5.1zm-2.1 0.1c-0.1-1.7-1.5-3.1-3.2-3.1-1.9 0.1-3.2 1.7-3.2 3.4 0.1 1.7 1.5 3.1 3.2 3.1v1.1l0.2-1.1c0.9-0.1 1.6-0.4 2.2-1.1 0.6-0.6 0.9-1.5 0.8-2.3z"/><path fill-rule="evenodd" class="b" d="m244.5 433c0 1.3-0.4 2.5-1.2 3.5-0.1 0.1-0.2 0.2-0.2 0.3-1 1.1-2.3 1.7-3.7 1.7h-0.2c-2.9 0-5.2-2.3-5.3-5.2-0.1-2.9 2.2-5.4 5.1-5.5 1.7 0 3.1 0.7 4.1 1.8 0.8 0.9 1.3 2.1 1.4 3.4zm-2.1 0c-0.1-1.7-1.5-3.1-3.2-3.1-1.9 0.1-3.3 1.6-3.2 3.4 0.1 1.7 1.4 3.1 3.2 3.1v1l0.1-1c0.8 0 1.6-0.4 2.2-1 0.6-0.7 0.9-1.5 0.9-2.4z"/><path fill-rule="evenodd" class="b" d="m257.8 445.1c0 1.5-0.5 2.9-1.4 3.9-1 1.1-2.3 1.7-3.8 1.8h-0.2c-2.9 0-5.2-2.3-5.3-5.1-0.1-1.6 0.5-3.1 1.5-4 0.9-0.9 2-1.5 3.2-1.6 0.1 0 0.2 0 0.3 0q0 0 0.1 0c1.4 0 2.6 0.4 3.6 1.2 1.2 1 1.9 2.3 2 3.8zm-2.2 0.2c-0.1-1.7-1.5-3.1-3.2-3.1-1.9 0.1-3.3 1.6-3.2 3.4 0 1.7 1.5 3.1 3.2 3.1v1l0.2-1c0.8-0.1 1.6-0.4 2.2-1.1 0.6-0.6 0.9-1.5 0.8-2.3z"/><path fill-rule="evenodd" class="b" d="m256.5 419.6c0 1.4-0.5 2.8-1.5 3.9q-0.2 0.2-0.4 0.4c-0.9 0.8-2 1.2-3.2 1.3h-0.2c-1.1 0-2.2-0.4-3-1-1.3-0.9-2.2-2.4-2.2-4.1-0.2-3 2-5.5 4.9-5.6 3.1 0 5.4 2.2 5.6 5.1zm-5.2 3.9l0.1-0.4c0.8-0.1 1.5-0.4 2.1-1.1 0.6-0.6 0.9-1.4 0.8-2.3-0.1-1.8-1.4-3.1-3.1-3.1-1.9 0.1-3.2 1.6-3.1 3.4 0.1 1.7 1.4 3.1 3.1 3.1v1z"/><path class="b" d="m303.1 432.3v0.1c0 0 0 0 0-0.1q-1.7 1.1-3.3 2.1c1.1-1.5 1.6-3.3 1.4-5.2-0.4-3.7-3.4-6.5-7.1-6.5h-0.6c-3.9 0.4-6.8 3.9-6.5 7.9 0.3 3.9 3.8 7 7.8 6.6q0.4-0.1 0.7-0.2c-0.1 0.1-0.1 0.1-0.2 0.1q-1.6 1-3.3 1.9-0.4 0-0.7-0.1c-2.4-0.8-4.4-2.6-5.5-5-0.5-0.9-0.8-2-0.9-3.2-0.1-1.2 0-2.5 0.4-3.6 0.8-2.5 2.5-4.5 4.8-5.6q1.4-0.8 3.1-0.9 1.7-0.2 3.3 0.3c2.5 0.6 4.5 2.3 5.7 4.6 0.6 1 1 2.2 1.1 3.5 0.2 1.1 0.1 2.3-0.2 3.3z"/><path class="b" d="m311.5 426.4q-0.9 0.6-1.8 1.3c-0.3-1.5-1.6-2.5-3-2.5-0.2 0-0.3 0-0.4 0-1.7 0.2-3 1.8-2.8 3.6 0.1 0.9 0.6 1.8 1.4 2.3-0.6 0.4-1.2 0.8-1.8 1.2v0.1c0 0 0 0 0-0.1-1-0.8-1.6-2-1.7-3.3-0.1-1.3 0.2-2.5 0.8-3.5 0.9-1.3 2.2-2.2 3.9-2.4 2.4-0.2 4.6 1.2 5.4 3.3z"/><path fill-rule="evenodd" class="b" d="m286.8 430.4c0.1 1.3-0.2 2.5-1 3.5-0.1 0.2-0.2 0.3-0.3 0.4-0.9 1.1-2.2 1.8-3.6 1.8q-0.2 0.1-0.4 0.1c-2.7 0-5.1-2.2-5.3-5-0.2-2.9 2-5.5 4.9-5.7 1.7-0.1 3.2 0.5 4.2 1.6 0.8 0.8 1.4 2 1.5 3.3zm-2.1 0.2c-0.2-1.7-1.5-3-3.2-3-2 0.1-3.3 1.6-3.1 3.5 0.1 1.6 1.5 3 3.1 3h0.3c0.8-0.1 1.6-0.5 2.1-1.1 0.6-0.7 0.9-1.6 0.8-2.4z"/><path class="b" d="m295.3 437.1q-1.6 1-3.3 1.9-0.7 0.4-1.3 0.7 0.3-0.4 0.6-0.8c0.9-1 2.1-1.6 3.5-1.7 0.2 0 0.3-0.1 0.5-0.1z"/><path fill-rule="evenodd" class="b" d="m296.9 420.5q-0.2 0.2-0.4 0.4c-0.9 0.8-1.9 1.3-3.1 1.4h-0.4c-1.1 0-2.1-0.3-2.9-0.8-1.3-0.9-2.2-2.3-2.4-4.1-0.3-2.9 1.9-5.5 4.7-5.8 3-0.2 5.4 2 5.7 4.9 0.2 1.4-0.3 2.9-1.2 4zm-3.9-0.3h0.2c0.8-0.1 1.6-0.5 2.1-1.1 0.5-0.7 0.8-1.5 0.7-2.4-0.2-1.7-1.5-3-3.1-3h-0.3c-1.7 0.2-2.9 1.8-2.8 3.6 0.2 1.6 1.5 2.9 3.2 2.9z"/><path class="b" d="m22.9 373c-0.1 0.7-0.8 1.1-1.5 1 0 0 0 0-0.1-0.1-0.7-0.1-1.1-0.8-0.9-1.5 1.4-6.3-2.6-12.4-7.2-14.1q-0.6-1.5-1.1-3c0.6 0.1 1.3 0.2 1.9 0.5 4.2 1.5 8 5.8 9 11.1 0.4 1.9 0.4 4-0.1 6.1z"/><path class="b" d="m36.8 382.5q-0.7 0-1.5-0.1c-2.1-0.3-4-1.5-5.2-3.2-1.2-1.8-1.7-3.9-1.3-6 0.7-3.5 4-5.9 7.5-5.3 3 0.5 5 3.3 4.6 6.3-0.1 0.7-0.8 1.2-1.5 1.1-0.8-0.1-1.3-0.8-1.2-1.5 0.3-1.6-0.8-3.1-2.3-3.3-2.1-0.4-4.1 1.1-4.5 3.2-0.2 1.4 0.1 2.8 0.9 3.9 0.8 1.2 2 2 3.4 2.2 1.8 0.3 3.7-0.2 5.2-1.3 1.4-1.1 2.4-2.7 2.6-4.5 0.7-4.8-2.5-9.4-7.2-10.2-5.9-1-11.7 3.1-13.2 9.2-0.2 0.7-0.9 1.2-1.6 1-0.7-0.2-1.2-0.9-1-1.6 1.8-7.5 9-12.4 16.3-11.2 6 1 10.2 6.9 9.4 13.2-0.4 2.5-1.7 4.7-3.8 6.3-1.6 1.2-3.6 1.8-5.6 1.8z"/><path class="b" d="m54.6 385q-0.5 0-1-0.1c-2.5-0.3-4.7-1.5-6.3-3.6-1.6-2-2.2-4.5-1.9-7.1 0.9-6.2 6.6-10.8 12.7-10 7.5 0.8 13.1 7.8 12.4 15.5-0.1 0.7-0.7 1.3-1.5 1.2-0.7-0.1-1.2-0.7-1.2-1.4 0.6-6.3-3.9-12-10-12.7-4.7-0.6-9.1 2.9-9.8 7.8-0.2 1.8 0.3 3.7 1.4 5.1 1.1 1.5 2.7 2.4 4.5 2.6 1.4 0.2 2.8-0.2 3.9-1.1 1.1-0.8 1.8-2.1 1.9-3.5 0.3-2.2-1.3-4.1-3.4-4.4-1.5-0.2-2.9 1-3.1 2.6-0.1 0.7-0.8 1.2-1.5 1.1-0.7-0.1-1.2-0.7-1.2-1.5 0.4-3 3.2-5.2 6.1-4.8 3.6 0.4 6.1 3.7 5.8 7.3-0.3 2.1-1.3 4-3 5.3-1.4 1.1-3.1 1.7-4.8 1.7z"/><path class="b" d="m84.1 387.9q-0.3 0-0.7-0.1c-2.1-0.1-4-1.1-5.4-2.7-1.3-1.6-2-3.7-1.8-5.8 0.3-3.6 3.5-6.3 7-6 3 0.2 5.3 2.9 5.1 5.9-0.1 0.8-0.7 1.3-1.5 1.2-0.7 0-1.2-0.6-1.2-1.4 0.1-1.6-1-2.9-2.6-3.1-2.1-0.2-4 1.5-4.2 3.6-0.1 1.4 0.4 2.8 1.3 3.9 0.9 1 2.1 1.7 3.5 1.8 1.8 0.1 3.6-0.4 4.9-1.6 1.4-1.2 2.3-2.9 2.4-4.8 0.3-4.9-3.3-9.2-8.1-9.6-6.1-0.5-11.6 4.2-12.2 10.5-0.1 0.8-0.8 1.3-1.5 1.2-0.7-0.1-1.2-0.7-1.2-1.4 0.8-7.7 7.6-13.5 15.2-12.9 6.2 0.5 10.9 6.1 10.4 12.4-0.1 2.6-1.3 4.9-3.2 6.6-1.8 1.5-3.9 2.3-6.2 2.3z"/><path class="b" d="m102.1 389.1q-0.2 0-0.5 0c-2.5-0.1-4.8-1.3-6.5-3.2-1.7-1.9-2.5-4.4-2.3-6.9 0.4-6.4 5.8-11.2 12.1-10.9 7.6 0.4 13.5 7.1 13.2 14.9-0.1 0.7-0.7 1.3-1.4 1.3-0.8-0.1-1.3-0.7-1.3-1.4 0.3-6.4-4.5-11.8-10.7-12.2-4.8-0.2-8.9 3.5-9.3 8.4-0.1 1.9 0.5 3.7 1.7 5.1 1.2 1.4 2.9 2.2 4.7 2.3 1.3 0 2.7-0.4 3.7-1.3 1-1 1.7-2.3 1.7-3.7 0.2-2.1-1.5-4-3.6-4.1-1.6-0.1-2.9 1.1-3 2.7 0 0.7-0.7 1.3-1.4 1.2-0.7 0-1.3-0.7-1.2-1.4 0.2-3 2.7-5.3 5.8-5.2 3.5 0.2 6.3 3.3 6.1 7-0.1 2.1-1.1 4-2.6 5.4-1.5 1.3-3.3 2-5.2 2z"/><path class="b" d="m131.6 390.6q-0.1 0-0.3 0c-2.1-0.1-4-1-5.4-2.6-1.5-1.5-2.2-3.5-2.1-5.7 0.1-3.6 3.2-6.5 6.7-6.3 3 0.1 5.4 2.7 5.3 5.7 0 0.8-0.6 1.3-1.4 1.3-0.7 0-1.3-0.6-1.3-1.3 0.1-1.6-1.1-3-2.7-3-2.1-0.1-3.9 1.6-4 3.7 0 1.5 0.4 2.8 1.4 3.8 0.9 1.1 2.2 1.7 3.6 1.7 1.8 0.1 3.5-0.6 4.8-1.8 1.4-1.3 2.2-3 2.2-4.9 0.2-4.9-3.6-9-8.4-9.2-6.2-0.3-11.5 4.7-11.8 11-0.1 0.7-0.7 1.3-1.4 1.3-0.8-0.1-1.3-0.7-1.3-1.4 0.4-7.8 7-13.9 14.6-13.6 6.2 0.3 11.2 5.7 11 12-0.1 2.6-1.2 5-3.1 6.7-1.7 1.7-4 2.6-6.4 2.6z"/><path class="b" d="m149.7 391.1q-0.1 0-0.2 0c-2.5-0.1-4.9-1.1-6.6-2.9-1.8-1.9-2.7-4.3-2.6-6.9 0.2-6.4 5.5-11.4 11.7-11.3 7.7 0.2 13.8 6.6 13.7 14.4 0 0.8-0.6 1.3-1.3 1.3q0 0 0 0c-0.8 0-1.4-0.6-1.4-1.3 0.1-6.3-4.8-11.6-11-11.8-4.9-0.1-8.9 3.8-9.1 8.8 0 1.8 0.7 3.6 1.9 4.9 1.3 1.4 2.9 2.1 4.8 2.2 1.3 0.1 2.6-0.5 3.6-1.5 1-0.9 1.6-2.3 1.6-3.7 0.1-2.2-1.6-4-3.7-4q-0.1 0-0.1 0c-1.5 0-2.8 1.2-2.8 2.8 0 0.7-0.7 1.3-1.4 1.3-0.7 0-1.3-0.6-1.3-1.4 0.1-3 2.7-5.4 5.6-5.4 3.6 0.1 6.5 3.1 6.4 6.8 0 2.1-0.9 4.1-2.4 5.6-1.5 1.4-3.4 2.1-5.4 2.1z"/><path class="b" d="m179.2 391.6q0 0 0 0c-2.1-0.1-4.1-0.9-5.6-2.4-1.4-1.5-2.2-3.5-2.2-5.6 0-3.6 3-6.5 6.5-6.6 3 0.1 5.5 2.6 5.5 5.6 0 0.7-0.6 1.3-1.3 1.3-0.8 0-1.4-0.6-1.4-1.3 0-1.6-1.2-2.9-2.8-2.9q0 0 0 0c-2.1 0-3.8 1.7-3.9 3.9 0 1.4 0.6 2.8 1.5 3.8 1 1 2.3 1.5 3.7 1.5q0 0 0 0c1.8 0 3.5-0.7 4.8-2 1.3-1.3 2-3 2-4.9 0-4.9-3.9-8.9-8.8-9-6.2 0-11.3 5.1-11.4 11.4 0 0.8-0.6 1.5-1.3 1.3-0.8 0-1.4-0.6-1.3-1.3 0.1-7.8 6.4-14 14-14q0 0 0.1 0c6.2 0 11.3 5.2 11.3 11.6 0 2.6-1 5-2.8 6.8-1.8 1.8-4.1 2.8-6.6 2.8z"/><path class="b" d="m197.3 391.6c-2.5 0-4.9-1-6.6-2.8-1.8-1.8-2.8-4.2-2.8-6.8 0-6.4 5.1-11.6 11.3-11.6q0.1 0 0.1 0c7.6 0 13.9 6.2 14 14 0.1 0.7-0.5 1.3-1.3 1.3q0 0 0 0c-0.7 0-1.3-0.5-1.3-1.3-0.1-6.3-5.2-11.4-11.4-11.4q0 0 0 0c-4.9 0.1-8.8 4.1-8.8 9 0 1.9 0.7 3.6 2 4.9 1.3 1.3 3 2 4.8 2q0 0 0 0c1.4 0 2.7-0.5 3.7-1.5 0.9-1 1.5-2.4 1.5-3.8-0.1-2.2-1.8-3.9-3.9-3.9-1.6 0-2.8 1.3-2.8 2.9 0 0.7-0.6 1.3-1.4 1.3-0.7 0.1-1.3-0.6-1.3-1.3 0-3 2.4-5.5 5.5-5.6q0 0 0 0c3.6 0 6.5 3 6.5 6.6 0 2.1-0.8 4.1-2.3 5.6-1.4 1.5-3.4 2.3-5.5 2.4q0 0 0 0z"/><path class="b" d="m226.8 391.1c-2 0-3.9-0.7-5.4-2.1-1.5-1.5-2.4-3.5-2.4-5.6-0.1-3.7 2.8-6.7 6.4-6.8 3 0 5.5 2.4 5.6 5.4 0 0.8-0.6 1.4-1.3 1.4-0.7 0-1.4-0.6-1.4-1.3 0-1.6-1.3-2.9-2.9-2.8-2.1 0-3.8 1.8-3.7 4 0 1.4 0.6 2.8 1.6 3.7 1 1 2.3 1.5 3.6 1.5 1.9-0.1 3.5-0.8 4.8-2.2 1.2-1.3 1.9-3.1 1.9-4.9-0.2-5-4.2-8.9-9.1-8.8-6.2 0.2-11.1 5.5-11 11.8 0 0.7-0.6 1.3-1.4 1.3-0.7 0-1.3-0.5-1.3-1.3-0.1-7.8 6-14.2 13.7-14.4 6.2-0.1 11.5 4.9 11.7 11.3 0.1 2.6-0.8 5-2.6 6.9-1.7 1.8-4.1 2.8-6.6 2.9q-0.1 0-0.2 0z"/><path class="b" d="m244.9 390.6c-2.4 0-4.7-0.9-6.4-2.6-1.9-1.7-3-4.1-3.1-6.7-0.2-6.3 4.8-11.7 11-12 7.7-0.3 14.2 5.8 14.6 13.6 0 0.7-0.5 1.3-1.3 1.4-0.6 0-1.3-0.6-1.4-1.3-0.3-6.3-5.5-11.3-11.8-11-4.8 0.2-8.6 4.3-8.4 9.2 0 1.9 0.8 3.6 2.2 4.9 1.3 1.2 3 1.8 4.8 1.8 1.4-0.1 2.7-0.6 3.6-1.7 1-1 1.4-2.3 1.4-3.8-0.1-2.1-2-3.8-4-3.8-1.6 0.1-2.8 1.5-2.7 3 0 0.8-0.6 1.4-1.3 1.4-0.7 0-1.4-0.5-1.4-1.3-0.1-3 2.3-5.6 5.3-5.7 3.6-0.1 6.6 2.7 6.7 6.3 0.1 2.1-0.6 4.2-2 5.7-1.5 1.6-3.4 2.5-5.5 2.5q-0.2 0.1-0.3 0.1z"/><path class="b" d="m274.4 389.1c-1.9 0-3.7-0.7-5.2-2-1.5-1.4-2.5-3.3-2.6-5.5-0.2-3.6 2.5-6.7 6.1-6.9 3-0.1 5.6 2.1 5.8 5.2 0.1 0.7-0.5 1.3-1.2 1.4-0.7 0-1.4-0.5-1.4-1.3-0.1-1.5-1.5-2.8-3-2.7-2.1 0.2-3.8 2-3.6 4.2 0 1.4 0.7 2.7 1.7 3.6 1 1 2.4 1.4 3.7 1.3 1.8-0.1 3.5-0.9 4.7-2.2 1.2-1.4 1.8-3.2 1.7-5.1-0.4-4.9-4.6-8.7-9.4-8.4-6.1 0.4-10.9 5.8-10.6 12.2 0 0.7-0.5 1.3-1.3 1.3-0.6 0.1-1.3-0.5-1.4-1.2-0.3-7.8 5.6-14.5 13.2-14.9 6.3-0.4 11.7 4.5 12.1 10.8 0.2 2.6-0.6 5.1-2.3 7-1.7 1.9-4 3-6.5 3.2q-0.2 0-0.5 0z"/><path class="b" d="m292.4 387.8c-2.3 0-4.4-0.8-6.2-2.3-1.9-1.6-3.1-4-3.2-6.5-0.5-6.4 4.2-12 10.4-12.5 7.6-0.6 14.4 5.2 15.2 12.9 0 0.7-0.5 1.4-1.2 1.5-0.7 0-1.4-0.5-1.5-1.2-0.6-6.3-6.1-11-12.3-10.5-4.7 0.4-8.3 4.7-8 9.6 0.1 1.8 1 3.5 2.4 4.7 1.3 1.2 3.1 1.8 4.9 1.7 1.4-0.2 2.6-0.8 3.5-1.9 0.9-1 1.4-2.4 1.3-3.8-0.2-2.2-2.1-3.8-4.2-3.6-1.6 0.1-2.7 1.5-2.6 3.1 0 0.7-0.5 1.3-1.2 1.4-0.7 0.1-1.4-0.5-1.5-1.2-0.2-3 2.1-5.7 5-6 3.7-0.3 6.8 2.4 7.1 6.1 0.2 2.1-0.5 4.1-1.8 5.7-1.4 1.6-3.3 2.6-5.4 2.8q-0.3 0-0.7 0z"/><path class="b" d="m321.9 384.9c-1.7 0-3.4-0.6-4.8-1.7-1.7-1.3-2.7-3.2-3-5.3-0.4-3.6 2.2-6.9 5.8-7.3 2.9-0.4 5.7 1.8 6 4.8 0.1 0.8-0.4 1.4-1.1 1.5-0.7 0.1-1.4-0.4-1.5-1.1-0.2-1.6-1.6-2.8-3.1-2.6-2.1 0.3-3.7 2.2-3.4 4.4 0.1 1.4 0.8 2.7 1.9 3.5 1.1 0.9 2.5 1.3 3.9 1.1 1.8-0.2 3.4-1.1 4.5-2.6 1.1-1.4 1.6-3.3 1.4-5.1-0.7-4.9-5.1-8.4-9.8-7.8-6.1 0.7-10.6 6.4-10 12.7 0.1 0.7-0.5 1.4-1.2 1.4-0.7 0.1-1.4-0.4-1.5-1.2-0.7-7.7 4.8-14.7 12.4-15.5 6.1-0.8 11.8 3.7 12.7 10 0.3 2.6-0.3 5.1-1.9 7.1-1.5 2.1-3.8 3.3-6.3 3.6q-0.5 0.1-1 0.1z"/><path class="b" d="m339.6 382.4c-1.9 0-3.9-0.6-5.5-1.8-2.1-1.6-3.4-3.8-3.8-6.4-0.8-6.2 3.4-12.1 9.4-13.2 7.3-1.2 14.5 3.7 16.3 11.2 0.2 0.7-0.3 1.5-1 1.6-0.7 0.2-1.4-0.2-1.6-0.9-1.5-6.2-7.3-10.2-13.2-9.2-4.7 0.8-7.9 5.3-7.2 10.2 0.2 1.8 1.2 3.4 2.7 4.5 1.4 1.1 3.3 1.6 5.1 1.2 1.4-0.2 2.6-0.9 3.4-2.1 0.8-1.2 1.1-2.6 0.9-3.9-0.4-2.2-2.4-3.6-4.5-3.3-1.6 0.3-2.6 1.8-2.4 3.4 0.2 0.7-0.3 1.4-1.1 1.5-0.7 0.1-1.4-0.4-1.5-1.1-0.4-3 1.6-5.9 4.5-6.4 3.6-0.5 6.9 1.8 7.6 5.4 0.4 2.1-0.1 4.2-1.3 5.9-1.2 1.8-3.1 2.9-5.2 3.3q-0.8 0.1-1.6 0.1z"/><path class="b" d="m364.4 355.1q-0.6 1.6-1.2 3.1c-4.6 1.7-8.5 7.7-7.1 14 0.1 0.6-0.1 1.2-0.6 1.5q-0.2 0.1-0.4 0.1c-0.2 0.1-0.5 0-0.7 0-0.4-0.2-0.8-0.5-0.9-1-0.4-2.1-0.4-4.1-0.1-6 1-5.4 4.9-9.7 9.1-11.2 0.6-0.2 1.2-0.4 1.9-0.5z"/><path class="b" d="m8.8 326.5c0 1.8-0.7 3.6-2.1 5-0.3 0.2-0.6 0.5-0.9 0.7-0.8-4-1.5-8.2-2-12.4 1.1 0.3 2.1 0.8 2.9 1.7 1.4 1.3 2.1 3.1 2.1 5z"/><path class="b" d="m363.7 335.8c0 3.2-2.2 6.1-5.4 6.9q-0.8 0.2-1.7 0.2c-3.2 0-6.1-2.2-6.8-5.4-0.9-3.8 1.3-7.6 5.2-8.6q0.8-0.2 1.7-0.2c3.1 0 6 2.2 6.8 5.4q0.2 0.9 0.2 1.7zm-336.9 0q0 0.8-0.2 1.7c-0.8 3.2-3.7 5.4-6.8 5.4q-0.9 0-1.7-0.2c-3.8-0.9-6.1-4.8-5.2-8.6 0.8-3.2 3.7-5.4 6.9-5.4q0.8 0 1.6 0.2c3.2 0.9 5.4 3.8 5.4 6.9zm316.1 4c0 3.4-2.5 6.4-6 7q-0.5 0-1.1 0c-3.4 0-6.4-2.5-6.9-6-0.6-3.8 2-7.4 5.9-8q0.5-0.1 1-0.1c3.5 0 6.5 2.5 7 6 0.1 0.3 0.1 0.7 0.1 1.1zm-295.3-0.1c0 0.4 0 0.8-0.1 1.1-0.5 3.5-3.5 6-7 6-0.3 0-0.7 0-1.1 0-3.8-0.7-6.5-4.2-5.9-8.1 0.5-3.5 3.5-6 7-6 0.3 0 0.7 0 1.1 0.1 3.5 0.5 6 3.5 6 6.9zm274.4 2.7c0 3.6-2.7 6.7-6.4 7.1q-0.3 0-0.7 0c-3.6 0-6.6-2.7-7-6.3-0.5-3.9 2.3-7.4 6.2-7.8 0.3 0 0.5 0 0.8 0 3.6 0 6.6 2.7 7 6.3q0.1 0.3 0.1 0.7zm-253.4 0c0 0.3 0 0.6-0.1 0.8-0.4 3.6-3.4 6.3-7 6.3q-0.4 0-0.7 0c-3.9-0.5-6.8-4-6.3-7.8 0.4-3.6 3.4-6.3 7-6.3 0.2 0 0.5 0 0.8 0 3.6 0.4 6.3 3.5 6.3 7zm21 2c0 0.2 0 0.4 0 0.6-0.3 3.7-3.4 6.5-7 6.5-0.2 0-0.4-0.1-0.6-0.1-3.9-0.3-6.8-3.7-6.5-7.5 0.3-3.8 3.5-6.6 7.1-6.6 0.2 0 0.3 0.1 0.5 0.1 3.7 0.3 6.5 3.3 6.5 7zm211.3 0c0 3.7-2.8 6.7-6.5 7-0.2 0-0.4 0.1-0.6 0.1-3.6 0-6.7-2.8-7-6.5-0.3-3.9 2.6-7.3 6.5-7.6 0.2 0 0.4-0.1 0.5-0.1 3.7 0 6.8 2.8 7.1 6.6 0 0.2 0 0.3 0 0.5zm-21.1 1v0.5c0 3.7-2.9 6.8-6.7 7h-0.4c-3.7 0-6.8-2.9-7-6.6-0.3-3.9 2.7-7.3 6.6-7.5h0.4c3.7 0 6.9 2.9 7.1 6.6zm-169.1 0.5v0.4c-0.2 3.7-3.3 6.6-7.1 6.6h-0.4c-3.9-0.2-6.8-3.6-6.6-7.5 0.2-3.7 3.3-6.6 7-6.6h0.5c3.7 0.2 6.6 3.4 6.6 7.1zm148 0.7v0.3c0 3.8-3 7-6.8 7.1h-0.3c-3.8 0-6.9-3-7-6.8-0.2-3.9 2.8-7.2 6.7-7.3q0 0 0 0h0.3c3.8 0 6.9 2.9 7.1 6.7zm-126.9 0.4v0.2c-0.1 3.8-3.3 6.8-7 6.8-0.1 0-0.2 0-0.3 0-3.9-0.1-7-3.5-6.8-7.4 0.2-3.7 3.3-6.7 7-6.7h0.4q0 0 0 0c3.8 0.1 6.7 3.3 6.7 7.1zm21.2 0.6v0.2c-0.1 2-0.9 3.7-2.2 4.9-1.3 1.3-3 2-4.9 2h-0.2c-3.9-0.1-7-3.3-6.9-7.2 0.1-3.9 3.3-6.9 7.1-6.9h0.2c3.8 0.1 6.9 3.3 6.9 7zm84.5-0.1v0.2c0 3.8-3 6.9-6.8 7h-0.2c-1.9 0-3.7-0.7-4.9-2-1.3-1.2-2.1-2.9-2.2-4.9-0.1-3.8 3-7.1 6.9-7.2h0.2c3.8 0 6.9 3 7 6.9zm-21.1 0.5v0.1c0 3.9-3.1 7-7 7.1h-0.1c-1.9 0-3.7-0.8-4.9-2.1-1.3-1.2-2.1-3-2.1-4.9-0.1-3.9 3-7.1 7-7.2 0 0 0 0 0 0 3.9 0 7.1 3.1 7.1 7zm-42.3 0.1v0.1c0 3.9-3.2 7-7.1 7 0 0 0 0 0 0-3.9-0.1-7-3.3-7-7.1 0-0.1 0-0.1 0-0.1 0-3.9 3.2-7 7.1-7 3.9 0.1 7 3.2 7 7.1zm21.2 0.1c0 2-0.8 3.7-2.1 5-1.3 1.3-3.1 2.1-5 2.1-2 0-3.7-0.8-5-2.1-1.3-1.3-2.1-3-2.1-5 0-3.9 3.2-7 7.1-7 1.9 0 3.7 0.7 5 2 1.3 1.3 2.1 3.1 2.1 5z"/><path class="b" d="m372.5 319.8c-0.5 4.2-1.1 8.4-2 12.4-0.3-0.2-0.6-0.5-0.9-0.7-1.3-1.4-2.1-3.2-2.1-5 0-1.9 0.8-3.7 2.1-5 0.8-0.8 1.8-1.4 2.9-1.7z"/><path class="a" d="m188.3 3.8c50.1 72 70.8 128.5 72.7 171.5 4.3 94.8-72.4 126.5-72.4 126.5 0 0-78.5-33-73.2-127.4 2.5-43.1 20.2-99.3 72.9-170.6z"/><path fill-rule="evenodd" class="d" d="m188.6 303.7l-0.7-0.3c-0.8-0.3-79.6-34.5-74.2-129.1 2.9-52.1 27.6-109.8 73.2-171.5l1.5-2 1.4 2c46.3 66.7 70.9 124.7 73 172.4 4.2 95-72.7 127.9-73.5 128.2zm-0.3-296.8c-44.3 60.4-68.3 116.8-71.1 167.6-5 87.5 63.8 121.9 71.4 125.4 7.5-3.5 74.6-36.8 70.6-124.5-2-46.6-25.9-103.3-70.9-168.5z"/><path class="a" d="m188.3 89c35.7 51.4 50.5 91.7 51.9 122.5 3 67.7-51.7 90.3-51.7 90.3 0 0-56.1-23.6-52.3-91 1.8-30.7 14.4-70.9 52.1-121.8z"/><path fill-rule="evenodd" class="b" d="m188.5 303.6q-0.4 0-0.7-0.2c-0.6-0.2-57.2-24.8-53.3-92.7 2.1-37.3 19.7-78.6 52.4-122.7 0.3-0.5 0.8-0.7 1.4-0.7 0.6 0 1.1 0.3 1.4 0.7 33.2 47.7 50.7 89.2 52.3 123.4 3 68.2-52.3 91.8-52.8 92q-0.4 0.2-0.7 0.2zm-0.3-211.5c-31.3 42.8-48.2 82.8-50.2 118.8-3.5 61.4 44.2 86 50.5 89 6.2-2.9 52.7-26.8 49.9-88.3-1.4-33.1-18.3-73.3-50.2-119.5z"/><path class="a" d="m188.2 178.2c20.8 29.9 29.4 53.3 30.2 71.2 1.7 39.3-30 52.4-30 52.4 0 0-32.6-13.7-30.4-52.8 1-17.9 8.4-41.2 30.2-70.8z"/><path fill-rule="evenodd" class="b" d="m188.4 303.6q-0.4 0-0.7-0.2c-0.4-0.1-33.7-14.6-31.5-54.5 1.3-21.8 11.6-45.9 30.6-71.7 0.4-0.5 0.9-0.8 1.5-0.7 0.5 0 1.1 0.3 1.4 0.7 19.3 27.8 29.6 52.1 30.4 72.1 1.8 40.1-30.7 54-31.1 54.1q-0.3 0.2-0.6 0.2zm-0.2-122.3c-17.7 24.4-27.3 47.2-28.4 67.8-2 34.4 24 48.6 28.6 50.8 4.6-2.2 29.8-15.6 28.2-50.5-0.8-18.8-10.4-41.7-28.4-68.1z"/><path fill-rule="evenodd" class="b" d="m188.2 466c-39.2 0-78.3-9.1-108.1-27.4h0.1c-1-0.4-3-1.6-7.7-4.7q-0.2-0.1-0.3-0.2c-45.4-29.4-71.3-78.5-71.3-134.9 0-1 0.8-1.8 1.7-1.8 1 0 1.8 0.8 1.8 1.8 0 7.3 58.4 18.2 183.8 18.2 125.3 0 183.8-10.9 183.8-18.2 0-1 0.7-1.8 1.7-1.8 1 0 1.8 0.8 1.8 1.8 0 57.6-22.7 100.5-71.4 135q-0.2 0.1-0.3 0.1c-2.2 1.4-5.2 3.4-7.4 4.6q-0.2 0.2-0.4 0.2 0 0 0 0c-29.8 18.2-68.8 27.3-107.8 27.3zm-106.5-30.5q0.2 0 0.3 0.1c58.5 35.9 153.8 35.9 212.3 0q0.1 0 0.1 0 0.1-0.1 0.2-0.1c2.1-1.2 5.3-3.2 7.5-4.7q0.1 0 0.1-0.1c46.2-32.7 68.4-73.1 69.7-127-20.2 13.1-121.4 16.8-183.7 16.8-62.4 0-163.5-3.7-183.7-16.8 1.4 53.2 26.7 99.3 69.8 127.1q0 0.1 0.1 0.1c1 0.7 6.4 4.1 7.3 4.6z"/></svg>